<?xml version="1.0" encoding="UTF-8"?>
<svg version="1.1" xmlns="http://www.w3.org/2000/svg" width="175" height="200">
<path d="M0 0 C2.29105945 1.22267468 4.55416067 2.4696294 6.8125 3.75 C7.6163916 4.20052734 8.4202832 4.65105469 9.24853516 5.11523438 C11.94868039 6.63995193 14.63237251 8.19039005 17.3125 9.75 C18.18543701 10.24790039 19.05837402 10.74580078 19.95776367 11.25878906 C24.80366167 14.13664467 28.27905854 16.51789263 30.8125 21.75 C31.79258531 26.88103484 31.39730629 31.40981891 29.3125 36.1875 C24.86912674 40.74195759 21.29838554 42.71550803 14.87109375 42.8046875 C8.01400806 41.87683567 2.38250841 37.94864336 -3.4375 34.4375 C-4.60597135 33.75189084 -5.77523823 33.06763561 -6.9453125 32.38476562 C-21.6660147 23.69003217 -21.6660147 23.69003217 -23.80078125 16.1875 C-24.46400543 12.00717787 -24.02951485 8.57020978 -22.1875 4.75 C-15.84617543 -2.64562792 -8.70809096 -4.19415115 0 0 Z " fill="#F1F1F1" transform="translate(142.1875,114.25)"/>
<path d="M0 0 C3.82618872 3.73286705 6.24439488 7.36208174 6.79296875 12.7734375 C6.56456182 17.73071377 5.03529344 20.87108124 1.68457031 24.60229492 C-2.86127847 28.66751381 -8.3170622 31.43201363 -13.625 34.375 C-14.82554011 35.0561115 -16.02541598 35.7383952 -17.22460938 36.421875 C-24.51590276 40.54106287 -29.92687487 43.53468216 -38.4375 42.5 C-43.25602225 40.13619663 -46.10826821 37.33763525 -48.4375 32.5 C-49.21379782 27.6362565 -48.99870148 23.76880335 -47 19.25 C-41.02806547 12.84109465 -32.54527057 8.58165012 -25.0625 4.125 C-24.19367188 3.57972656 -23.32484375 3.03445312 -22.4296875 2.47265625 C-15.09139162 -1.85867519 -8.05275799 -3.51393076 0 0 Z " fill="#F1F1F1" transform="translate(166.4375,46.5)"/>
<path d="M0 0 C3.46924312 2.82962315 5.58789849 5.76369547 7 10 C7.12061244 12.57672034 7.18808081 15.12557839 7.203125 17.703125 C7.20882507 18.45914001 7.21452515 19.21515503 7.22039795 19.99407959 C7.22983965 21.59450892 7.23637864 23.19495762 7.24023438 24.79541016 C7.24990945 27.22724 7.28092679 29.65821328 7.3125 32.08984375 C7.3190337 33.64843251 7.32428273 35.20702728 7.328125 36.765625 C7.3404718 37.48566711 7.3528186 38.20570923 7.36553955 38.9475708 C7.34311277 44.10768709 6.35153831 47.50560666 4 52 C-0.90753427 56.5484464 -4.00649369 57.29381014 -10.52734375 57.21875 C-15.6131517 56.7688207 -18.75003066 53.71425067 -22 50 C-23.29118999 46.12643004 -23.20183452 42.42649217 -23.23828125 38.38671875 C-23.246353 37.53954788 -23.25442474 36.69237701 -23.26274109 35.8195343 C-23.2765669 34.02660154 -23.28729578 32.23364262 -23.29516602 30.44067383 C-23.31237103 27.70798494 -23.35626849 24.97650874 -23.40039062 22.24414062 C-23.41051887 20.50000887 -23.41903456 18.75586686 -23.42578125 17.01171875 C-23.44328934 16.19902023 -23.46079742 15.38632172 -23.47883606 14.54899597 C-23.45863019 9.22622621 -22.52807603 6.22455051 -19 2 C-12.77261508 -2.51485406 -7.12976147 -2.68348503 0 0 Z " fill="#F1F1F1" transform="translate(96,141)"/>
<path d="M0 0 C0.99773438 0.56525391 1.99546875 1.13050781 3.0234375 1.71289062 C16.29468344 9.37545524 16.29468344 9.37545524 19.8125 15.1875 C20.92006793 20.35615034 21.19956451 24.76937141 18.875 29.5625 C16.33642421 33.4460756 12.91474445 35.843261 8.375 36.8125 C-0.16599666 36.84609291 -6.11681191 33.28575668 -13.375 29.0625 C-14.48488281 28.44117188 -15.59476563 27.81984375 -16.73828125 27.1796875 C-30.24779444 19.47390019 -30.24779444 19.47390019 -32.625 12.8125 C-33.33357092 7.81954678 -33.17652691 3.89585642 -30.875 -0.625 C-21.34743486 -11.47583808 -10.84079585 -6.40143349 0 0 Z " fill="#F1F1F1" transform="translate(33.625,51.1875)"/>
<path d="M0 0 C4.14614396 1.49966909 6.23072461 3.97842659 8.26953125 7.90625 C9.65250511 11.87028202 9.86129878 15.9024977 9 20 C6.42181569 24.75087954 3.76535163 27.17873583 -0.875 29.875 C-1.43364746 30.2037915 -1.99229492 30.53258301 -2.56787109 30.87133789 C-4.3711817 31.92756268 -6.18523462 32.9636033 -8 34 C-9.28702582 34.75032952 -10.57348095 35.50163877 -11.859375 36.25390625 C-24.9207035 43.84319034 -24.9207035 43.84319034 -33 43 C-37.69994029 41.28271412 -40.20959499 39.13393334 -43 35 C-44.676194 29.97141801 -44.60642735 25.65969589 -42.8125 20.75 C-39.73224777 16.07651386 -35.36842705 13.49609394 -30.55078125 10.80078125 C-29.53822266 10.23166016 -28.52566406 9.66253906 -27.48242188 9.07617188 C-25.91331055 8.2031543 -25.91331055 8.2031543 -24.3125 7.3125 C-23.25482422 6.71888672 -22.19714844 6.12527344 -21.10742188 5.51367188 C-13.40543211 1.19760477 -8.95870894 -0.68813272 0 0 Z " fill="#F1F1F1" transform="translate(44,114)"/>
<path d="M0 0 C3.32765156 2.92429986 5.65331343 5.58494028 7.0625 9.8125 C7.18272322 12.24392362 7.25052142 14.64587523 7.265625 17.078125 C7.27132507 17.78974792 7.27702515 18.50137085 7.28289795 19.23455811 C7.29233765 20.74082966 7.29887785 22.24712177 7.30273438 23.75341797 C7.31240659 26.04041376 7.34342413 28.32649755 7.375 30.61328125 C7.38153408 32.08072386 7.38678296 33.54817287 7.390625 35.015625 C7.4029718 35.69191956 7.4153186 36.36821411 7.42803955 37.06500244 C7.40482974 42.09561109 6.34028404 45.42108432 4.0625 49.8125 C-0.84503427 54.3609464 -3.94399369 55.10631014 -10.46484375 55.03125 C-15.5506517 54.5813207 -18.68753066 51.52675067 -21.9375 47.8125 C-23.88584125 41.96747624 -23.24458076 35.29541181 -23.28759766 29.16259766 C-23.30413195 27.4362233 -23.33138889 25.7099167 -23.36962891 23.98388672 C-23.4246782 21.48369147 -23.44631358 18.98509641 -23.4609375 16.484375 C-23.48360687 15.72058533 -23.50627625 14.95679565 -23.52963257 14.16986084 C-23.50645815 8.22951325 -21.77907841 5.33036419 -17.9375 0.8125 C-13.01400196 -2.72656889 -5.40242794 -2.18396023 0 0 Z " fill="#F1F1F1" transform="translate(95.9375,5.1875)"/>
</svg>
